<svg xmlns="http://www.w3.org/2000/svg" version="1.1" xlink="http://www.w3.org/1999/xlink" xmlns:svgjs="http://svgjs.com/svgjs" width="100%" height="100%" viewBox="5 0 90 100">
  <g fill="#3b82f6">
    <path d="M50 97.5a3.112 3.112 0 0 1-1.632-.462l-.342-.211C6.693 71.916 8.808 17.226 8.918 14.91a3.113 3.113 0 0 1 3.109-2.965h.024l.607.002c19.425 0 31.102-6.98 35.222-9.982.433-.315 1.088-.793 2.118-.793 1.031 0 1.688.478 2.122.794 4.12 3.001 15.799 9.981 35.219 9.98l.608-.002a3.099 3.099 0 0 1 3.134 2.965c.11 2.316 2.226 57.006-39.121 82.176l-.328.202A3.101 3.101 0 0 1 50 97.5zM15.126 18.14C15.317 29.459 18.258 70.617 50 90.968c31.74-20.36 34.683-61.51 34.873-72.828C67.041 17.625 55.376 11.616 50 8.07c-5.376 3.547-17.04 9.553-34.874 10.07z"></path>
    <path d="M50 81.065a3.115 3.115 0 0 1-1.623-.457l-.225-.138C20.506 63.642 21.916 27.167 21.99 25.622a3.115 3.115 0 0 1 3.11-2.966h.023l.389.002c12.422-.001 19.85-4.434 22.467-6.34.348-.254.996-.726 2.02-.726 1.022 0 1.674.472 2.022.727 2.62 1.906 10.053 6.339 22.466 6.339l.39-.002h.022a3.113 3.113 0 0 1 3.11 2.966c.074 1.544 1.482 38.019-26.166 54.85l-.221.136a3.11 3.11 0 0 1-1.622.457z"></path>
  </g>
</svg>
